<svg xmlns="http://www.w3.org/2000/svg" viewBox="0 0 1100 1000">
  <!-- Title -->
  <text x="550" y="60" font-family="Arial" font-size="35" font-weight="bold" text-anchor="middle" fill="#2D3748">Spanda.AI Platform</text>
  <text x="550" y="90" font-family="Arial" font-size="22" text-anchor="middle" fill="#718096">Multi-Domain Generative AI Ecosystem</text>
  
  <!-- Solutions Layer -->
  <rect x="100" y="130" width="900" height="150" rx="10" ry="10" fill="#EBF8FF" stroke="#4299E1" stroke-width="2"/>
  <text x="550" y="155" font-family="Arial" font-size="24" font-weight="bold" text-anchor="middle" fill="#2B6CB0">Solutions Layer</text>
  
  <!-- Domain-Specific Applications -->
  <rect x="130" y="175" width="250" height="80" rx="8" ry="8" fill="#BEE3F8" stroke="#3182CE" stroke-width="1.5"/>
  <text x="255" y="205" font-family="Arial" font-size="18" font-weight="bold" text-anchor="middle" fill="#2C5282">Domain-Specific Applications</text>
  <text x="255" y="230" font-family="Arial" font-size="14" text-anchor="middle" fill="#4A5568">Industry-specific AI solutions</text>
  
  <!-- SDKs+Integration Tools -->
  <rect x="425" y="175" width="250" height="80" rx="8" ry="8" fill="#BEE3F8" stroke="#3182CE" stroke-width="1.5"/>
  <text x="550" y="205" font-family="Arial" font-size="18" font-weight="bold" text-anchor="middle" fill="#2C5282">SDKs+Integration Tools</text>
  <text x="550" y="230" font-family="Arial" font-size="14" text-anchor="middle" fill="#4A5568">Developer libraries+connectivity tools</text>
  
  <!-- Extensible Solutions -->
  <rect x="720" y="175" width="250" height="80" rx="8" ry="8" fill="#BEE3F8" stroke="#3182CE" stroke-width="1.5"/>
  <text x="845" y="205" font-family="Arial" font-size="18" font-weight="bold" text-anchor="middle" fill="#2C5282">Extensible Solutions</text>
  <text x="845" y="230" font-family="Arial" font-size="14" text-anchor="middle" fill="#4A5568">Future solution types</text>
  
  <!-- Direct connection from Solutions to Domain Layer (removed Kafka Queue(TBD)s between them) -->
  
  <!-- Domain Layer -->
  <rect x="100" y="320" width="900" height="310" rx="10" ry="10" fill="#F0FFF4" stroke="#48BB78" stroke-width="2"/>
  <text x="550" y="345" font-family="Arial" font-size="24" font-weight="bold" text-anchor="middle" fill="#2F855A">Domain Layer</text>
  
  <!-- EdTech Domain -->
  <rect x="130" y="375" width="200" height="230" rx="8" ry="8" fill="#C6F6D5" stroke="#38A169" stroke-width="1.5"/>
  <text x="230" y="400" font-family="Arial" font-size="18" font-weight="bold" text-anchor="middle" fill="#276749">EdTech Domain</text>
  
  <!-- EdTech Kong API Gateway -->
  <rect x="145" y="420" width="170" height="35" rx="5" ry="5" fill="#9AE6B4" stroke="#48BB78" stroke-width="1"/>
  <text x="230" y="443" font-family="Arial" font-size="14" font-weight="bold" text-anchor="middle" fill="#276749">Kong API Gateway</text>
  
  <!-- EdTech Kafka Queue(TBD) (moved between API Gateway and Services) -->
  <rect x="145" y="465" width="170" height="30" rx="5" ry="5" fill="#FEEBC8" stroke="#F56565" stroke-width="1.5"/>
  <text x="230" y="485" font-family="Arial" font-size="12" font-weight="bold" text-anchor="middle" fill="#C53030">Kafka Queue(TBD)</text>
  
  <!-- EdTech Services -->
  <rect x="145" y="505" width="170" height="80" rx="5" ry="5" fill="#9AE6B4" stroke="#48BB78" stroke-width="1"/>
  <text x="230" y="530" font-family="Arial" font-size="14" font-weight="bold" text-anchor="middle" fill="#276749">EdTech Services</text>
  <text x="230" y="550" font-family="Arial" font-size="11" text-anchor="middle" fill="#2D3748">Document Analysis</text>
  <text x="230" y="565" font-family="Arial" font-size="11" text-anchor="middle" fill="#2D3748">QA Generation</text>
  <text x="230" y="580" font-family="Arial" font-size="11" text-anchor="middle" fill="#2D3748">Educational AI Agents</text>
  
  <!-- FinTech Domain -->
  <rect x="366" y="375" width="230" height="230" rx="8" ry="8" fill="#C6F6D5" stroke="#38A169" stroke-width="1.5"/>
  <text x="480" y="400" font-family="Arial" font-size="18" font-weight="bold" text-anchor="middle" fill="#276749">FinTech Domain(Planned)</text>
  
  <!-- FinTech Kong API Gateway -->
  <rect x="395" y="420" width="170" height="35" rx="5" ry="5" fill="#9AE6B4" stroke="#48BB78" stroke-width="1"/>
  <text x="480" y="443" font-family="Arial" font-size="14" font-weight="bold" text-anchor="middle" fill="#276749">Kong API Gateway</text>
  
  <!-- FinTech Kafka Queue(TBD) (moved between API Gateway and Services) -->
  <rect x="395" y="465" width="170" height="30" rx="5" ry="5" fill="#FEEBC8" stroke="#F56565" stroke-width="1.5"/>
  <text x="480" y="485" font-family="Arial" font-size="12" font-weight="bold" text-anchor="middle" fill="#C53030">Kafka Queue(TBD)</text>
  
  <!-- FinTech Services -->
  <rect x="395" y="505" width="170" height="80" rx="5" ry="5" fill="#9AE6B4" stroke="#48BB78" stroke-width="1"/>
  <text x="480" y="530" font-family="Arial" font-size="14" font-weight="bold" text-anchor="middle" fill="#276749">FinTech Services</text>
  <text x="480" y="550" font-family="Arial" font-size="11" text-anchor="middle" fill="#2D3748">Risk Assessment</text>
  <text x="480" y="565" font-family="Arial" font-size="11" text-anchor="middle" fill="#2D3748">Fraud Detection</text>
  <text x="480" y="580" font-family="Arial" font-size="11" text-anchor="middle" fill="#2D3748">Financial AI Agents</text>
  
  <!-- OilGas Domain -->
  <rect x="620" y="375" width="220" height="230" rx="8" ry="8" fill="#C6F6D5" stroke="#38A169" stroke-width="1.5"/>
  <text x="730" y="400" font-family="Arial" font-size="18" font-weight="bold" text-anchor="middle" fill="#276749">OilGas Domain(Planned)</text>
  
  <!-- OilGas Kong API Gateway -->
  <rect x="645" y="420" width="170" height="35" rx="5" ry="5" fill="#9AE6B4" stroke="#48BB78" stroke-width="1"/>
  <text x="730" y="443" font-family="Arial" font-size="14" font-weight="bold" text-anchor="middle" fill="#276749">Kong API Gateway</text>
  
  <!-- OilGas Kafka Queue(TBD) (moved between API Gateway and Services) -->
  <rect x="645" y="465" width="170" height="30" rx="5" ry="5" fill="#FEEBC8" stroke="#F56565" stroke-width="1.5"/>
  <text x="730" y="485" font-family="Arial" font-size="12" font-weight="bold" text-anchor="middle" fill="#C53030">Kafka Queue(TBD)</text>
  
  <!-- OilGas Services -->
  <rect x="645" y="505" width="170" height="80" rx="5" ry="5" fill="#9AE6B4" stroke="#48BB78" stroke-width="1"/>
  <text x="730" y="530" font-family="Arial" font-size="14" font-weight="bold" text-anchor="middle" fill="#276749">OilGas Services</text>
  <text x="730" y="550" font-family="Arial" font-size="11" text-anchor="middle" fill="#2D3748">Predictive Maintenance</text>
  <text x="730" y="565" font-family="Arial" font-size="11" text-anchor="middle" fill="#2D3748">Resource Optimization</text>
  <text x="730" y="580" font-family="Arial" font-size="11" text-anchor="middle" fill="#2D3748">Energy AI Agents</text>
  
  <!-- Future Domains (dashed) -->
  <rect x="880" y="375" width="100" height="230" rx="8" ry="8" fill="#C6F6D5" stroke="#38A169" stroke-width="1.5" stroke-dasharray="5,5"/>
  <text x="930" y="400" font-family="Arial" font-size="18" font-weight="bold" text-anchor="middle" fill="#276749">Future</text>
  <text x="930" y="420" font-family="Arial" font-size="18" font-weight="bold" text-anchor="middle" fill="#276749">Domains</text>
  
  <!-- Future Domains Kong API Gateway -->
  <rect x="890" y="445" width="80" height="35" rx="5" ry="5" fill="#9AE6B4" stroke="#48BB78" stroke-width="1" stroke-dasharray="5,5"/>
  <text x="930" y="468" font-family="Arial" font-size="12" font-weight="bold" text-anchor="middle" fill="#276749">Kong API</text>
  
  <!-- Future Domains Kafka Queue(TBD) (moved between API Gateway and Services) -->
  <rect x="890" y="490" width="80" height="30" rx="5" ry="5" fill="#FEEBC8" stroke="#F56565" stroke-width="1.5" stroke-dasharray="5,5"/>
  <text x="930" y="510" font-family="Arial" font-size="10" font-weight="bold" text-anchor="middle" fill="#C53030">Kafka Queue(TBD)</text>
  
  <!-- Future Domains Services -->
  <rect x="890" y="530" width="80" height="60" rx="5" ry="5" fill="#9AE6B4" stroke="#48BB78" stroke-width="1" stroke-dasharray="5,5"/>
  <text x="930" y="550" font-family="Arial" font-size="10" font-weight="bold" text-anchor="middle" fill="#276749">Domain Services</text>
  <text x="930" y="565" font-family="Arial" font-size="8" text-anchor="middle" fill="#2D3748">Healthcare</text>
  <text x="930" y="575" font-family="Arial" font-size="8" text-anchor="middle" fill="#2D3748">Manufacturing</text>
  <text x="930" y="585" font-family="Arial" font-size="8" text-anchor="middle" fill="#2D3748">Others</text>
  
  <!-- Centralized Kafka Queue(TBD) -->
  <rect x="400" y="650" width="300" height="40" rx="5" ry="5" fill="#FEB2B2" stroke="#F56565" stroke-width="1.5"/>
  <text x="550" y="675" font-family="Arial" font-size="16" font-weight="bold" text-anchor="middle" fill="#C53030">Centralized Kong API Gateway</text>
  
  <!-- Centralized Kong API Gateway -->
  <rect x="400" y="710" width="300" height="40" rx="5" ry="5" fill="#FEEBC8" stroke="#ED8936" stroke-width="1.5"/>
  <text x="550" y="735" font-family="Arial" font-size="16" font-weight="bold" text-anchor="middle" fill="#DD6B20">Centralized Kafka Queue(TBD)</text>
  
  <!-- Platform Layer -->
  <rect x="100" y="770" width="900" height="190" rx="10" ry="10" fill="#FFFBEB" stroke="#ECC94B" stroke-width="2"/>
  <text x="550" y="795" font-family="Arial" font-size="24" font-weight="bold" text-anchor="middle" fill="#B7791F">Platform Layer</text>
  
  <!-- Fine Tuning + Pre-Training -->
  <rect x="130" y="810" width="200" height="60" rx="8" ry="8" fill="#FEFCBF" stroke="#ECC94B" stroke-width="1.5"/>
  <text x="230" y="830" font-family="Arial" font-size="14" font-weight="bold" text-anchor="middle" fill="#B7791F">Fine Tuning + Pre-Training</text>
  <text x="230" y="845" font-family="Arial" font-size="10" text-anchor="middle" fill="#2D3748">MS-Swift, Unsloth (DONE)</text>
  <text x="230" y="858" font-family="Arial" font-size="10" text-anchor="middle" fill="#2D3748">TensorFlow + PyTorch</text>
  
  <!-- Inference -->
  <rect x="360" y="810" width="200" height="60" rx="8" ry="8" fill="#FEFCBF" stroke="#ECC94B" stroke-width="1.5"/>
  <text x="460" y="830" font-family="Arial" font-size="14" font-weight="bold" text-anchor="middle" fill="#B7791F">Inference</text>
  <text x="460" y="845" font-family="Arial" font-size="10" text-anchor="middle" fill="#2D3748">vLLM, Ollama (DONE)</text>
  <text x="460" y="858" font-family="Arial" font-size="10" text-anchor="middle" fill="#2D3748">Llama.cpp, Dllama (Planned)</text>
  
  <!-- RAG -->
  <rect x="590" y="810" width="200" height="60" rx="8" ry="8" fill="#FEFCBF" stroke="#ECC94B" stroke-width="1.5"/>
  <text x="690" y="830" font-family="Arial" font-size="14" font-weight="bold" text-anchor="middle" fill="#B7791F">RAG</text>
  <text x="690" y="845" font-family="Arial" font-size="10" text-anchor="middle" fill="#2D3748">Weaviate, Sentence Transformers (DONE)</text>
  <text x="690" y="858" font-family="Arial" font-size="10" text-anchor="middle" fill="#2D3748">Ollama support (DONE)</text>
  
  <!-- Testing -->
  <rect x="820" y="810" width="150" height="60" rx="8" ry="8" fill="#FEFCBF" stroke="#ECC94B" stroke-width="1.5"/>
  <text x="895" y="830" font-family="Arial" font-size="14" font-weight="bold" text-anchor="middle" fill="#B7791F">Testing</text>
  <text x="895" y="845" font-family="Arial" font-size="10" text-anchor="middle" fill="#2D3748">promptfoo</text>
  <text x="895" y="858" font-family="Arial" font-size="10" text-anchor="middle" fill="#2D3748">(Functional + Risk)</text>
  
  <!-- Infrastructure -->
  <rect x="130" y="880" width="200" height="60" rx="8" ry="8" fill="#FEFCBF" stroke="#ECC94B" stroke-width="1.5"/>
  <text x="230" y="900" font-family="Arial" font-size="14" font-weight="bold" text-anchor="middle" fill="#B7791F">Infrastructure</text>
  <text x="230" y="915" font-family="Arial" font-size="10" text-anchor="middle" fill="#2D3748">Kafka, Redis (DONE)</text>
  <text x="230" y="928" font-family="Arial" font-size="10" text-anchor="middle" fill="#2D3748">Kubernetes, Docker, Helm, Ray</text>
  
  <!-- Observability -->
  <rect x="360" y="880" width="200" height="60" rx="8" ry="8" fill="#FEFCBF" stroke="#ECC94B" stroke-width="1.5"/>
  <text x="460" y="900" font-family="Arial" font-size="14" font-weight="bold" text-anchor="middle" fill="#B7791F">Observability</text>
  <text x="460" y="915" font-family="Arial" font-size="10" text-anchor="middle" fill="#2D3748">Prometheus, Pushgateway (DONE)</text>
  <text x="460" y="928" font-family="Arial" font-size="10" text-anchor="middle" fill="#2D3748">AlertManager, Grafana (DONE)</text>
  
  <!-- Agentic Framework -->
  <rect x="590" y="880" width="200" height="60" rx="8" ry="8" fill="#FEFCBF" stroke="#ECC94B" stroke-width="1.5"/>
  <text x="690" y="900" font-family="Arial" font-size="14" font-weight="bold" text-anchor="middle" fill="#B7791F">Agentic Framework</text>
  <text x="690" y="915" font-family="Arial" font-size="10" text-anchor="middle" fill="#2D3748">Orchestration, Management</text>
  <text x="690" y="928" font-family="Arial" font-size="10" text-anchor="middle" fill="#2D3748">Agent Tools</text>
  
  <!-- Analytics + Lakehouse -->
  <rect x="820" y="880" width="150" height="60" rx="8" ry="8" fill="#FEFCBF" stroke="#ECC94B" stroke-width="1.5" stroke-dasharray="5,5"/>
  <text x="895" y="900" font-family="Arial" font-size="12" font-weight="bold" text-anchor="middle" fill="#B7791F">Analytics + Lakehouse</text>
  <text x="895" y="915" font-family="Arial" font-size="8" text-anchor="middle" fill="#2D3748">Apache Superset, Iceberg (Planned)</text>
  <text x="895" y="928" font-family="Arial" font-size="8" text-anchor="middle" fill="#2D3748">Dremio, Spark, MinIO, Nesse</text>
  
  <!-- Key Principles -->
  <text x="550" y="990" font-family="Arial" font-size="16" font-weight="bold" text-anchor="middle" fill="#4A5568">Key Principles: Domain Isolation • Selective Consumption • Shared Platform • Agentic Foundation • Extensibility</text>
  
  <!-- Connection Lines -->
  <!-- Vertical connecting lines - direct from Solutions to Domain Layer (removed intermediate Kafka) -->
  <line x1="255" y1="255" x2="230" y2="375" stroke="#4A5568" stroke-width="1.5"/>
  <line x1="550" y1="255" x2="480" y2="375" stroke="#4A5568" stroke-width="1.5"/>
  <line x1="845" y1="255" x2="730" y2="375" stroke="#4A5568" stroke-width="1.5"/>
  <line x1="845" y1="255" x2="930" y2="375" stroke="#4A5568" stroke-width="1.5" stroke-dasharray="5,5"/>
  
  <!-- Lines within domain sections -->
  <line x1="230" y1="455" x2="230" y2="465" stroke="#4A5568" stroke-width="1.5"/>
  <line x1="230" y1="495" x2="230" y2="505" stroke="#4A5568" stroke-width="1.5"/>
  <line x1="480" y1="455" x2="480" y2="465" stroke="#4A5568" stroke-width="1.5"/>
  <line x1="480" y1="495" x2="480" y2="505" stroke="#4A5568" stroke-width="1.5"/>
  <line x1="730" y1="455" x2="730" y2="465" stroke="#4A5568" stroke-width="1.5"/>
  <line x1="730" y1="495" x2="730" y2="505" stroke="#4A5568" stroke-width="1.5"/>
  <line x1="930" y1="480" x2="930" y2="490" stroke="#4A5568" stroke-width="1.5" stroke-dasharray="5,5"/>
  <line x1="930" y1="520" x2="930" y2="530" stroke="#4A5568" stroke-width="1.5" stroke-dasharray="5,5"/>
  
  <!-- Lines from domains to centralized kafka -->
  <line x1="230" y1="585" x2="230" y2="650" stroke="#4A5568" stroke-width="1.5"/>
  <line x1="230" y1="650" x2="450" y2="650" stroke="#4A5568" stroke-width="1.5"/>
  <line x1="480" y1="585" x2="480" y2="650" stroke="#4A5568" stroke-width="1.5"/>
  <line x1="730" y1="585" x2="730" y2="650" stroke="#4A5568" stroke-width="1.5"/>
  <line x1="730" y1="650" x2="650" y2="650" stroke="#4A5568" stroke-width="1.5"/>
  <line x1="930" y1="590" x2="930" y2="650" stroke="#4A5568" stroke-width="1.5" stroke-dasharray="5,5"/>
  <line x1="930" y1="650" x2="650" y2="650" stroke="#4A5568" stroke-width="1.5" stroke-dasharray="5,5"/>
  
  <!-- Lines from centralized kafka to gateway and platform -->
  <line x1="550" y1="690" x2="550" y2="710" stroke="#4A5568" stroke-width="1.5"/>
  <line x1="550" y1="750" x2="550" y2="770" stroke="#4A5568" stroke-width="1.5"/>
</svg>